<svg version="1.1" id="Layer_1" xmlns="http://www.w3.org/2000/svg" xmlns:xlink="http://www.w3.org/1999/xlink" x="0px" y="0px"
	 width="100%" viewBox="0 0 1024 1024" enable-background="new 0 0 1024 1024" xml:space="preserve">
<rect width="1024" height="1024" rx="240" fill="#1E0A3C"/>
<path fill="#FAF7F2" opacity="1.000000" stroke="none" 
	d="
M331.842651,386.816895 
	C337.360626,385.925140 339.592834,388.281555 341.174103,393.030945 
	C364.095581,461.875214 387.197998,530.659241 410.286957,599.447632 
	C411.006317,601.590759 411.301270,603.950928 413.393982,606.308533 
	C416.239777,598.294006 418.986847,590.703674 421.634247,583.078674 
	C443.746552,519.391541 465.873993,455.709717 487.860992,391.979401 
	C489.251617,387.948547 491.320312,386.458069 495.484314,386.721313 
	C500.464020,387.036072 505.490082,387.022614 510.473511,386.745483 
	C514.487671,386.522247 516.365540,388.086487 517.640015,391.901123 
	C526.394043,418.103577 535.379578,444.228638 544.276855,470.383240 
	C559.337646,514.656006 574.385864,558.933105 589.454407,603.203308 
	C589.927185,604.592163 590.565613,605.924805 591.537476,608.277954 
	C595.775879,595.912292 599.732178,584.494324 603.605530,573.048218 
	C624.038696,512.666260 644.476440,452.285767 664.809021,391.869904 
	C666.063354,388.142761 667.855164,386.504089 671.948181,386.693573 
	C678.853333,387.013184 685.783997,386.781219 692.373108,386.781219 
	C693.456299,389.649292 692.360718,391.302765 691.800537,392.968140 
	C664.048401,475.462555 636.223938,557.932678 608.574158,640.461365 
	C607.084717,644.907043 604.966980,646.578430 600.362061,646.300537 
	C594.550903,645.950012 588.684448,645.938965 582.875793,646.311279 
	C578.351135,646.601257 576.446960,644.672974 575.064270,640.593384 
	C562.028748,602.131836 548.833069,563.724548 535.656677,525.310791 
	C525.018188,494.296021 514.344849,463.293182 503.673981,432.289490 
	C503.304993,431.217407 502.796570,430.193329 502.320770,429.070435 
	C500.170563,429.845581 500.278046,431.778107 499.781342,433.214905 
	C475.964691,502.111237 452.139252,571.004639 428.526581,639.971008 
	C426.892212,644.744629 424.704071,646.666687 419.678284,646.306702 
	C414.041504,645.902954 408.342926,646.006287 402.691162,646.288330 
	C398.680328,646.488464 396.802948,644.983582 395.529907,641.144287 
	C386.154572,612.869507 376.539490,584.674255 367.031281,556.443481 
	C348.756195,502.182617 330.501434,447.914948 312.239105,393.649780 
	C309.985413,386.953064 310.091278,386.810150 317.365997,386.804901 
	C322.032318,386.801544 326.698639,386.812195 331.842651,386.816895 
z"/>
<path fill="#FAF7F2" opacity="1.000000" stroke="none"
	d="
M869.013977,419.093933 
	C839.810242,407.816772 810.549011,404.761993 780.918213,415.429321 
	C758.884888,423.361511 747.498291,444.618805 753.298828,465.960541 
	C756.421265,477.448944 764.694824,484.514893 774.731506,489.714355 
	C788.148132,496.664764 802.922852,499.654388 817.343811,503.610321 
	C836.743652,508.932098 856.645569,512.843872 874.804688,521.826660 
	C891.119324,529.897034 904.596191,541.201294 908.694885,560.104858 
	C915.364868,590.867249 904.398682,619.373779 875.297729,634.715515 
	C852.606689,646.677979 828.217407,649.134216 803.082764,647.635315 
	C780.334045,646.278809 758.758606,640.766418 738.640137,629.959961 
	C732.019592,626.403748 725.911804,622.058228 720.446228,616.859802 
	C718.977722,615.463013 717.409424,614.127258 718.652283,611.745911 
	C721.870972,605.579163 725.057251,599.395508 728.090515,593.538940 
	C729.788269,593.258118 730.578125,593.883728 731.339294,594.540649 
	C759.004333,618.418640 791.872681,625.536621 827.227173,623.462524 
	C842.111572,622.589294 856.527649,618.970703 868.436707,608.915771 
	C883.050110,596.577454 887.299622,575.801636 877.867432,560.229492 
	C871.106323,549.067261 859.964966,543.549255 848.168396,539.457397 
	C829.136292,532.855774 809.284058,529.110962 790.044250,523.221985 
	C774.124207,518.349060 758.188049,513.547974 744.947815,502.616760 
	C728.489685,489.028809 722.840149,471.583435 724.342041,450.733551 
	C726.744446,417.381317 751.371338,396.530273 781.118530,389.375305 
	C818.079346,380.485291 853.734375,384.228333 888.041077,400.638702 
	C900.725281,406.706085 900.724731,406.713165 895.126709,419.509766 
	C893.674011,422.830719 892.201477,426.143097 890.514771,429.965393 
	C883.148743,426.355469 876.605652,422.071228 869.013977,419.093933 
z"/>
<path fill="#FAF7F2" opacity="1.000000" stroke="none"
	d="
M146.206970,646.196655 
	C141.076599,646.628479 140.772751,643.694519 140.784409,640.144470 
	C140.856689,618.146606 140.836349,596.148438 140.834717,574.150330 
	C140.830261,514.322144 140.819260,454.493988 140.812393,394.665833 
	C140.811493,386.803589 140.815720,386.800171 148.868759,386.800293 
	C154.201584,386.800385 159.535828,386.888214 164.866714,386.789764 
	C168.008743,386.731689 169.545227,387.962006 169.325760,391.208008 
	C169.224838,392.700653 169.323837,394.206451 169.323868,395.706299 
	C169.325623,468.533325 169.326065,541.360352 169.328018,614.187378 
	C169.328217,621.011169 169.332397,621.029236 176.251373,621.031372 
	C219.580933,621.044678 262.910492,621.045105 306.240051,621.060852 
	C313.871490,621.063660 313.879181,621.087524 313.922729,628.915649 
	C313.943115,632.581909 313.727264,636.262024 313.977936,639.911194 
	C314.301819,644.625366 312.520142,646.359802 307.666260,646.291504 
	C291.004303,646.057190 274.337067,646.199463 257.671844,646.199341 
	C220.675247,646.199097 183.678665,646.199463 146.206970,646.196655 
z"/>
</svg>